<?xml version="1.0" encoding="UTF-8" standalone="no"?>
<!-- Created with Inkscape (http://www.inkscape.org/) -->

<svg
   width="210mm"
   height="20mm"
   viewBox="0 0 210 20"
   version="1.1"
   id="svg1"
   inkscape:version="1.4.3 (0d15f75042, 2025-12-25)"
   sodipodi:docname="footerscroll-gray-800.svg"
   xmlns:inkscape="http://www.inkscape.org/namespaces/inkscape"
   xmlns:sodipodi="http://sodipodi.sourceforge.net/DTD/sodipodi-0.dtd"
   xmlns="http://www.w3.org/2000/svg"
   xmlns:svg="http://www.w3.org/2000/svg">
  <sodipodi:namedview
     id="namedview1"
     pagecolor="#ffffff"
     bordercolor="#999999"
     borderopacity="1"
     inkscape:showpageshadow="2"
     inkscape:pageopacity="0"
     inkscape:pagecheckerboard="0"
     inkscape:deskcolor="#d1d1d1"
     inkscape:document-units="mm"
     inkscape:zoom="1.104894"
     inkscape:cx="465.203"
     inkscape:cy="173.31979"
     inkscape:window-width="2048"
     inkscape:window-height="1086"
     inkscape:window-x="0"
     inkscape:window-y="0"
     inkscape:window-maximized="1"
     inkscape:current-layer="layer1" />
  <defs
     id="defs1" />
  <g
     inkscape:label="Ebene 1"
     inkscape:groupmode="layer"
     id="layer1">
    <path
       style="display:inline;fill:#23201e;fill-opacity:1;stroke-width:0.2464"
       d="m 195.11083,15.525681 -0.36426,-0.635635 -1.03313,-0.0326 -1.03313,-0.0326 -0.39349,-0.651932 -0.39349,-0.651935 -0.95048,-0.01799 -0.95048,-0.01799 -0.31736,-0.56876 c -0.17455,-0.312817 -0.40926,-0.715444 -0.5216,-0.894725 -0.11233,-0.179283 -0.30732,-0.516659 -0.4333,-0.749724 -0.12599,-0.233067 -0.29505,-0.533771 -0.37568,-0.668232 l -0.1466,-0.244475 H 174.8787 161.55957 l -0.93547,1.115342 c -0.51452,0.61344 -0.9734,1.163508 -1.01974,1.222375 -0.0755,0.09587 -0.42198,0.110432 -3.32313,0.13963 l -3.23886,0.0326 -0.58847,0.700663 -0.58848,0.700663 -42.37566,0.0015 c -23.306619,7.39e-4 -44.372224,0.01937 -46.812456,0.04135 l -4.436789,0.03994 -0.613186,-0.735654 c -0.337253,-0.404608 -0.663314,-0.797188 -0.724576,-0.872396 -0.06126,-0.07521 -0.326429,-0.386104 -0.589249,-0.690884 -0.262822,-0.304779 -0.693726,-0.810843 -0.957564,-1.124584 L 54.876236,10.359164 H 27.515129 c -21.1939379,0 -27.37874027,-0.01764 -27.43933989,-0.07823 -0.10105356,-0.101054 -0.10105356,-0.459608 0,-0.560661 0.06059962,-0.0606 6.24617569,-0.07823 27.44281889,-0.07823 h 27.364586 l 0.567812,-0.668232 c 0.312295,-0.367528 0.763781,-0.873591 1.003301,-1.124587 0.239521,-0.250993 0.54823,-0.617705 0.686022,-0.814916 0.137792,-0.197209 0.424165,-0.566636 0.636382,-0.820946 l 0.38585,-0.462384 5.551456,-0.0437 c 3.0533,-0.02402 24.127699,-0.04284 46.832003,-0.04179 l 41.28054,0.002 0.60617,0.744012 0.60617,0.744012 0.71713,0.01537 c 0.39442,0.0085 1.8466,0.0074 3.22707,-0.0025 l 2.50994,-0.01774 0.74972,0.902852 c 0.41235,0.496567 0.86348,1.027771 1.00251,1.180451 l 0.25277,0.277601 13.37263,-2.46e-4 13.37263,-2.47e-4 0.58674,-1.015483 c 0.32271,-0.558515 0.71876,-1.240459 0.88011,-1.515429 l 0.29337,-0.499946 0.96411,-0.0326 0.9641,-0.0326 0.34685,-0.619337 0.34685,-0.619336 1.03923,-0.01786 1.03922,-0.01786 0.36351,-0.634083 0.36351,-0.634083 3.58167,-0.01685 3.58167,-0.01685 0.35698,0.636183 0.35697,0.636182 1.0278,0.0326 1.02779,0.0326 0.37125,0.619336 0.37124,0.619336 0.92248,0.01806 c 0.62814,0.0123 0.94354,0.04349 0.98851,0.09779 0.0363,0.04386 0.45262,0.754491 0.9251,1.579187 0.47249,0.824696 0.91619,1.561163 0.986,1.636596 0.12666,0.136863 0.12595,0.138901 -0.34257,0.9779 -0.25822,0.462411 -0.56001,0.977819 -0.67064,1.145351 -0.11063,0.16753 -0.3625,0.599284 -0.55971,0.959454 l -0.35856,0.654858 -0.94389,0.01843 -0.94389,0.01843 -0.39257,0.668192 -0.39258,0.668193 -1.01049,0.0022 -1.0105,0.0022 -0.28633,0.50304 c -0.15748,0.276671 -0.32684,0.569046 -0.37636,0.649725 l -0.09,0.146685 h -3.53757 -3.53756 z m 7.38398,-0.733424 c 0.35767,-0.604715 1.28565,-2.190646 1.63507,-2.794356 0.0962,-0.16628 0.19639,-0.346332 0.22256,-0.400116 0.0262,-0.05379 0.24887,-0.440238 0.49489,-0.858786 l 0.44732,-0.760994 -0.28384,-0.477678 c -0.15611,-0.262724 -0.56274,-0.961741 -0.90363,-1.55337 -0.34088,-0.591628 -0.92116,-1.596423 -1.2895,-2.232872 l -0.66971,-1.157183 h -3.13978 -3.13977 l -0.2107,0.374863 c -0.25954,0.461769 -0.32415,0.574344 -1.67423,2.917401 -0.59915,1.039835 -1.11634,1.918478 -1.14931,1.952542 -0.033,0.03406 -0.0599,0.09794 -0.0599,0.141947 0,0.06132 1.07424,1.988716 1.43063,2.566834 0.0332,0.05378 0.40367,0.693855 0.82335,1.422376 0.41969,0.728524 0.80537,1.36689 0.85707,1.418592 0.0797,0.07971 0.56155,0.09143 3.1686,0.07707 l 3.07461,-0.01693 z M 196.86,13.243914 c -0.0844,-0.134461 -0.2276,-0.376489 -0.31823,-0.537845 -0.0906,-0.161352 -0.47877,-0.834514 -0.86252,-1.495916 -0.57882,-0.997605 -0.68711,-1.225857 -0.63541,-1.339319 0.0343,-0.07523 0.33418,-0.604883 0.66645,-1.177011 0.33228,-0.572129 0.75447,-1.304269 0.9382,-1.626977 l 0.33407,-0.58674 2.03022,-0.01722 2.03022,-0.01722 0.18923,0.343186 c 0.35352,0.641163 1.72605,3.015751 1.78585,3.089679 0.0387,0.0479 -0.0629,0.28675 -0.29127,0.684531 -0.19293,0.33603 -0.49337,0.86033 -0.66764,1.165107 -0.17427,0.30478 -0.33975,0.563923 -0.36774,0.575876 -0.028,0.01195 -0.0509,0.05267 -0.0509,0.09048 0,0.03781 -0.1362,0.299401 -0.30267,0.581307 l -0.30266,0.512556 h -2.01088 -2.01088 z m -2.65151,0.773366 c 0,-0.03182 -0.16103,-0.332522 -0.35786,-0.668232 -0.19682,-0.33571 -0.35817,-0.644607 -0.35856,-0.686441 -4.9e-4,-0.04183 -0.0241,-0.08584 -0.0526,-0.09779 -0.0286,-0.01195 -0.17951,-0.241758 -0.33544,-0.510681 -0.15593,-0.268923 -0.48802,-0.840995 -0.73798,-1.271271 l -0.45446,-0.78232 0.15881,-0.293369 c 0.14186,-0.262049 0.64171,-1.13035 1.77128,-3.07693 0.20176,-0.347697 0.36684,-0.663069 0.36684,-0.700828 0,-0.04291 -0.21387,-0.0683 -0.57044,-0.06771 l -0.57044,9.85e-4 -0.18639,0.341326 c -0.10251,0.187729 -0.34075,0.60536 -0.52943,0.928068 -1.14459,1.957739 -1.59855,2.764019 -1.59855,2.839237 0,0.04684 0.22951,0.483304 0.51002,0.969922 0.28051,0.486618 0.53007,0.928765 0.55459,0.982549 0.0245,0.05378 0.11038,0.204071 0.19081,0.333971 0.0804,0.129897 0.3516,0.591631 0.60259,1.026074 l 0.45636,0.789896 0.57044,7.39e-4 c 0.31374,4.93e-4 0.57044,-0.02531 0.57044,-0.05713 z m 11.28308,-0.890773 c 1.01047,-1.744382 1.49881,-2.602125 1.6423,-2.88463 l 0.14232,-0.280216 -0.14578,-0.273927 c -0.0802,-0.150659 -0.32874,-0.58643 -0.55236,-0.968377 -0.22362,-0.381945 -0.68528,-1.180549 -1.02592,-1.774671 l -0.61934,-1.080225 -0.57044,-0.0017 c -0.31374,-9.86e-4 -0.57044,0.01432 -0.57044,0.03407 0,0.01976 0.5134,0.924815 1.14088,2.01125 0.62749,1.086434 1.14089,2.015847 1.14089,2.065364 0,0.07025 -0.59527,1.140368 -1.30255,2.34161 -0.44855,0.761807 -0.97922,1.696262 -0.97922,1.724307 0,0.01976 0.25878,0.03591 0.57507,0.03591 h 0.57507 z m -53.7664,0.312987 c 0.12296,-0.134461 0.77372,-0.904557 1.44613,-1.711324 0.67241,-0.806768 1.27772,-1.528099 1.34513,-1.602958 0.12172,-0.135168 0.11727,-0.142363 -0.64554,-1.043093 -0.42245,-0.498841 -1.11702,-1.325038 -1.54349,-1.83599 l -0.77539,-0.929007 -17.72256,-1.18e-4 c -9.74741,-6.7e-5 -25.65823,-1.21e-4 -35.357366,-1.21e-4 -9.699139,0 -22.65024,5.4e-5 -28.780228,1.21e-4 l -11.145433,1.18e-4 -0.223564,0.244476 c -0.122958,0.13446 -0.773715,0.904559 -1.446126,1.711327 -0.672411,0.806765 -1.27772,1.528096 -1.345132,1.602957 -0.121722,0.135168 -0.117269,0.142363 0.645531,1.043093 0.422455,0.498841 1.117027,1.325038 1.543491,1.83599 l 0.775394,0.929004 H 104.99881 151.5016 Z M 59.527514,11.149248 c -0.506633,-0.605257 -0.921152,-1.121263 -0.921152,-1.146679 0,-0.03987 0.701144,-0.893755 1.594122,-1.941388 l 0.26384,-0.309535 44.567726,1.11e-4 44.56772,1.08e-4 0.92095,1.100225 c 0.50652,0.605124 0.92094,1.121019 0.92094,1.146435 0,0.03986 -0.69673,0.8884 -1.59414,1.941492 l -0.26386,0.309636 -44.5675,3.2e-5 -44.567495,3.2e-5 z m 148.274536,1.230856 c 0.4549,-0.754319 1.33571,-2.344791 1.33571,-2.411878 0,-0.0669 -0.261,-0.536369 -1.16904,-2.102761 l -0.40626,-0.700828 h -0.48362 c -0.28811,0 -0.48362,0.02713 -0.48362,0.0671 0,0.06479 1.38549,2.49784 1.50702,2.646461 0.0388,0.04741 -0.018,0.208324 -0.16091,0.456355 -0.12143,0.210717 -0.48379,0.837844 -0.80524,1.393617 -0.32145,0.555774 -0.5629,1.025166 -0.53655,1.043094 0.0264,0.01794 0.25904,0.01794 0.51709,0 l 0.46919,-0.0326 z m -16.50177,0.08149 c -0.0966,-0.170317 -0.25558,-0.441684 -0.35334,-0.603037 -0.41497,-0.684854 -1.04121,-1.816697 -1.04121,-1.881843 0,-0.03879 0.22481,-0.460019 0.49957,-0.936056 0.27476,-0.476038 0.62483,-1.085552 0.77792,-1.354473 l 0.27835,-0.488952 -0.49156,-0.01917 c -0.40312,-0.01572 -0.50623,9.85e-4 -0.57305,0.09226 -0.21754,0.297513 -1.53432,2.643426 -1.53432,2.733483 0,0.106319 0.11735,0.362883 0.19233,0.420491 0.0233,0.01794 0.22592,0.355304 0.45018,0.749721 0.22426,0.39442 0.43415,0.761132 0.46643,0.814919 0.0323,0.05378 0.14825,0.251809 0.25774,0.440053 l 0.19907,0.342267 h 0.52374 0.52374 z m -31.2531,-1.261095 c 0.44821,-0.536674 0.85405,-1.031857 0.90187,-1.100405 0.0789,-0.113164 0.004,-0.223756 -0.81491,-1.201757 l -0.90187,-1.077123 -2.79245,-0.0022 -2.79246,-0.0022 0.11953,0.154754 c 0.0657,0.08511 0.4569,0.555304 0.86925,1.044869 0.41235,0.489567 0.74972,0.930761 0.74972,0.980433 0,0.04967 -0.36837,0.525598 -0.81861,1.057613 -0.45024,0.532017 -0.84069,1.003974 -0.86766,1.048794 -0.0389,0.06471 0.52557,0.08064 2.74182,0.07737 l 2.79086,-0.0041 z m 27.69955,2.28789 -1.06098,-1.108285 h -10.70018 -10.70019 l -0.14175,-0.150887 c -0.18276,-0.194543 -0.17975,-0.377424 0.009,-0.554876 l 0.15089,-0.141751 h 10.82849 10.82848 l 1.19548,1.243216 c 0.65752,0.683767 1.20524,1.302716 1.21715,1.375439 0.028,0.170876 -0.2303,0.445432 -0.41905,0.445432 -0.10451,0 -0.45059,-0.317657 -1.20747,-1.108288 z m -22.6031,-5.235965 c -0.18276,-0.194545 -0.17975,-0.377423 0.009,-0.554875 l 0.15089,-0.141752 h 10.68824 10.68825 l 1.07421,-1.075691 c 0.70308,-0.704049 1.12121,-1.075689 1.21027,-1.075689 0.16782,0 0.41956,0.257161 0.41956,0.428601 0,0.07772 -0.47357,0.599907 -1.223,1.348562 l -1.223,1.22173 h -10.8264 -10.8264 z"
       id="path1" />
  </g>
</svg>
