<?xml version="1.0" encoding="UTF-8" standalone="no"?>
<!-- Created with Inkscape (http://www.inkscape.org/) -->

<svg
   width="42"
   height="84"
   viewBox="0 0 11.1125 22.224999"
   version="1.1"
   id="svg1"
   sodipodi:docname="kapitelzeichen-gray-800.svg"
   inkscape:version="1.4.3 (0d15f75042, 2025-12-25)"
   xmlns:inkscape="http://www.inkscape.org/namespaces/inkscape"
   xmlns:sodipodi="http://sodipodi.sourceforge.net/DTD/sodipodi-0.dtd"
   xmlns="http://www.w3.org/2000/svg"
   xmlns:svg="http://www.w3.org/2000/svg">
  <sodipodi:namedview
     id="namedview1"
     pagecolor="#ffffff"
     bordercolor="#999999"
     borderopacity="1"
     inkscape:showpageshadow="2"
     inkscape:pageopacity="0"
     inkscape:pagecheckerboard="0"
     inkscape:deskcolor="#d1d1d1"
     inkscape:document-units="mm"
     inkscape:zoom="4.4195761"
     inkscape:cx="53.511919"
     inkscape:cy="80.890111"
     inkscape:window-width="2048"
     inkscape:window-height="1086"
     inkscape:window-x="0"
     inkscape:window-y="0"
     inkscape:window-maximized="1"
     inkscape:current-layer="layer1" />
  <defs
     id="defs1" />
  <g
     inkscape:label="Ebene 1"
     inkscape:groupmode="layer"
     id="layer1">
    <path
       style="display:inline;fill:#23201e;fill-opacity:1;stroke-width:0.208325"
       d="m 4.875405,21.773053 c -0.40675,-0.23173 -0.86189,-0.50069 -1.01142,-0.59771 -0.14952,-0.097 -0.53681,-0.3219 -0.86064,-0.49975 l -0.58879,-0.32337 -0.0166,-0.85123 -0.0166,-0.85124 -0.6026,-0.35404 -0.6026,-0.35404 -0.002,-0.91131 -0.002,-0.9113 -0.45367,-0.25823 c -0.24951,-0.14203 -0.51319,-0.29477 -0.58594,-0.33943 l -0.13229,-0.0812 v -4.34804 -4.3480604 l 0.13229,-0.0812 c 0.0727,-0.0447 0.33643,-0.19739 0.58594,-0.33942 l 0.45367,-0.25822 0.002,-0.91131 0.002,-0.91131 0.6026,-0.35404 0.6026,-0.35404 0.0166,-0.85124 0.0166,-0.85124 0.59058,-0.32337 c 0.32482,-0.17785 0.71419,-0.40499 0.86528,-0.5047701 0.15108,-0.0998 0.6159,-0.37192999 1.03292,-0.60479999 0.75664,-0.42253 0.75848,-0.42317 0.88191,-0.30895 0.068,0.063 0.7322,0.4631 1.47595,0.88921 0.74374,0.42611009 1.38462,0.80155009 1.42418,0.83430009 0.049,0.0406 0.0771,0.325 0.0882,0.89148 l 0.0163,0.83193 0.55855,0.3348 0.55854,0.33481 0.0294,0.92691 0.0294,0.92691 0.57324,0.32166 0.57324,0.32166 v 4.3883004 4.38829 l -0.57324,0.32166 -0.57324,0.32167 -0.0294,0.9269 -0.0294,0.92691 -0.55854,0.33481 -0.55855,0.3348 -0.0163,0.83193 c -0.0111,0.56648 -0.0392,0.85093 -0.0882,0.89147 -0.0396,0.0328 -0.68044,0.4082 -1.42418,0.8343 -0.74375,0.42611 -1.40688,0.82528 -1.47364,0.88704 -0.0668,0.0618 -0.1329,0.11008 -0.14699,0.10736 -0.0141,-0.003 -0.3584,-0.19452 -0.76516,-0.42625 z m 1.37374,-0.73587 c 0.33027,-0.18918 0.88491,-0.50883 1.23253,-0.71034 l 0.63203,-0.3664 v -0.43614 c 0,-0.25982 -0.0245,-0.43614 -0.0605,-0.43614 -0.0584,0 -2.25266,1.24948 -2.38669,1.35908 -0.0428,0.035 -0.18788,-0.0162 -0.41156,-0.14511 -0.19004,-0.10952 -0.7556,-0.43631 -1.25682,-0.72619 -0.50122,-0.2899 -0.92454,-0.50774 -0.94071,-0.4841 -0.0162,0.0237 -0.0206,0.23194 -0.01,0.46288 l 0.0196,0.41989 0.32201,0.1888 c 1.13199,0.66376 2.11896,1.21295 2.18375,1.21515 0.0416,0.001 0.34586,-0.15221 0.67614,-0.34138 z m 0.0356,-1.72095 c 0.343,-0.19794 1.06019,-0.61249 1.59375,-0.92124 0.53355,-0.30875 1.0691,-0.61643 1.19009,-0.68373 l 0.22,-0.12235 4.1e-4,-0.51445 c 2.1e-4,-0.28295 -0.0141,-0.51445 -0.0319,-0.51445 -0.0178,0 -0.83403,0.463 -1.81383,1.0289 -0.97979,0.56589 -1.81797,1.02889 -1.86262,1.02889 -0.0634,0 -1.02844,-0.53683 -2.11177,-1.17469 -0.68702,-0.40452 -1.52976,-0.8831 -1.55505,-0.8831 -0.0178,0 -0.0324,0.23304 -0.0324,0.51787 v 0.51786 l 0.80842,0.46266 c 0.44463,0.25447 0.86133,0.49934 0.92601,0.54416 0.27309,0.18924 1.88827,1.0716 1.96328,1.07252 0.045,6.3e-4 0.36252,-0.16093 0.70553,-0.35885 z m -0.27505,-1.65845 c 0.23559,-0.13997 0.86489,-0.50602 1.39845,-0.81344 0.53355,-0.30743 1.43972,-0.83075 2.01369,-1.16294 l 1.0436,-0.60397 v -3.98527 -3.9852804 l -1.0436,-0.60397 c -0.57397,-0.33219 -1.48014,-0.85551 -2.01369,-1.16294 -0.53356,-0.30741 -1.16396,-0.67414 -1.4009,-0.81492 l -0.43079,-0.25598 -0.68629,0.40341 c -0.37746,0.22188 -0.72598,0.42272 -0.77449,0.44632 -0.0485,0.0236 -0.21088,0.11392 -0.36084,0.20071 -0.54516,0.31553 -1.97499,1.15218 -2.52007,1.47458 l -0.55854,0.33037 v 3.9677004 3.96768 l 0.55854,0.33038 c 0.56015,0.33131 2.0094,1.17921 2.52007,1.47437 0.14996,0.0867 0.32556,0.18308 0.39024,0.21424 0.0647,0.0312 0.40862,0.23065 0.76432,0.44331 0.3557,0.21266 0.65241,0.38744 0.65935,0.38839 0.007,10e-4 0.20536,-0.11277 0.44095,-0.25275 z m -1.04151,-2.09998 c -0.32336,-0.19022 -0.78637,-0.45751 -1.02889,-0.59396 -0.24253,-0.13645 -0.44978,-0.26969 -0.46055,-0.29606 -0.0108,-0.0264 -0.0475,-0.048 -0.0816,-0.048 -0.0341,0 -0.27001,-0.12283 -0.52425,-0.27296 l -0.46224,-0.27295 v -2.98173 -2.9817404 l 0.46224,-0.27296 c 0.25424,-0.15012 0.49015,-0.27296 0.52425,-0.27296 0.0341,0 0.0708,-0.0207 0.0816,-0.0459 0.0108,-0.0252 0.24448,-0.17449 0.51934,-0.33165 0.27486,-0.15717 0.7477,-0.4281 1.05075,-0.60211 0.35873,-0.20596 0.57414,-0.29762 0.61733,-0.26268 0.0666,0.0539 2.20765,1.29144 2.78557,1.61011 l 0.30867,0.1702 v 2.9896804 2.98966 l -0.30867,0.1702 c -0.68918,0.38003 -2.723,1.5586 -2.77508,1.60813 -0.0769,0.0731 -0.0523,0.0837 -0.70847,-0.30235 z M 2.663515,5.2087226 c 0.39448,-0.22857 0.75692,-0.43895 0.80543,-0.46751 1.08333,-0.63787 2.0484,-1.1747 2.11176,-1.1747 0.0447,0 0.88284,0.463 1.86263,1.0289 0.97979,0.56589 1.79601,1.02889 1.81383,1.02889 0.0178,0 0.0316,-0.2315 0.0307,-0.51445 l -0.002,-0.51444 -0.97419,-0.55855 c -0.5358,-0.3072 -1.25601,-0.72355 -1.60047,-0.92522 -0.34445,-0.20167 -0.73745,-0.42583 -0.87332,-0.49814 l -0.24704,-0.13147 -0.25271,0.12835 c -0.25477,0.12941 -1.02832,0.56981 -2.60148,1.4811 l -0.8555,0.49558 v 0.51862 c 0,0.28524 0.0146,0.51862 0.0324,0.51862 0.0178,0 0.35515,-0.18701 0.74963,-0.41558 z m 1.8801,-2.91361 c 0.89284,-0.52911 1.05791,-0.61115 1.12285,-0.55805 0.13404,0.1096 2.32826,1.3591 2.38669,1.3591 0.036,0 0.0605,-0.17632 0.0605,-0.43615 v -0.43615 l -0.63204,-0.36639 c -1.41263,-0.8189 -1.83601,-1.05429009 -1.89635,-1.05429009 -0.0605,0 -1.49486,0.79436009 -2.17513,1.20460009 l -0.32337,0.19501 -0.0294,0.41809 c -0.0162,0.22995 -0.0215,0.44152 -0.0118,0.47016 0.0162,0.0478 0.57784,-0.25063 1.49801,-0.79593 z"
       id="path12" />
  </g>
</svg>
